<svg id="container" width="2598.765625" xmlns="http://www.w3.org/2000/svg" class="flowchart" height="809" viewBox="0 0 2598.765625 809" role="graphics-document document" aria-roledescription="flowchart-v2"><style>#container{font-family:"trebuchet ms",verdana,arial,sans-serif;font-size:16px;fill:#ccc;}@keyframes edge-animation-frame{from{stroke-dashoffset:0;}}@keyframes dash{to{stroke-dashoffset:0;}}#container .edge-animation-slow{stroke-dasharray:9,5!important;stroke-dashoffset:900;animation:dash 50s linear infinite;stroke-linecap:round;}#container .edge-animation-fast{stroke-dasharray:9,5!important;stroke-dashoffset:900;animation:dash 20s linear infinite;stroke-linecap:round;}#container .error-icon{fill:#a44141;}#container .error-text{fill:#ddd;stroke:#ddd;}#container .edge-thickness-normal{stroke-width:1px;}#container .edge-thickness-thick{stroke-width:3.5px;}#container .edge-pattern-solid{stroke-dasharray:0;}#container .edge-thickness-invisible{stroke-width:0;fill:none;}#container .edge-pattern-dashed{stroke-dasharray:3;}#container .edge-pattern-dotted{stroke-dasharray:2;}#container .marker{fill:lightgrey;stroke:lightgrey;}#container .marker.cross{stroke:lightgrey;}#container svg{font-family:"trebuchet ms",verdana,arial,sans-serif;font-size:16px;}#container p{margin:0;}#container .label{font-family:"trebuchet ms",verdana,arial,sans-serif;color:#ccc;}#container .cluster-label text{fill:#F9FFFE;}#container .cluster-label span{color:#F9FFFE;}#container .cluster-label span p{background-color:transparent;}#container .label text,#container span{fill:#ccc;color:#ccc;}#container .node rect,#container .node circle,#container .node ellipse,#container .node polygon,#container .node path{fill:#1f2020;stroke:#ccc;stroke-width:1px;}#container .rough-node .label text,#container .node .label text,#container .image-shape .label,#container .icon-shape .label{text-anchor:middle;}#container .node .katex path{fill:#000;stroke:#000;stroke-width:1px;}#container .rough-node .label,#container .node .label,#container .image-shape .label,#container .icon-shape .label{text-align:center;}#container .node.clickable{cursor:pointer;}#container .root .anchor path{fill:lightgrey!important;stroke-width:0;stroke:lightgrey;}#container .arrowheadPath{fill:lightgrey;}#container .edgePath .path{stroke:lightgrey;stroke-width:1px;}#container .flowchart-link{stroke:lightgrey;fill:none;}#container .edgeLabel{background-color:hsl(0, 0%, 34.4117647059%);text-align:center;}#container .edgeLabel p{background-color:hsl(0, 0%, 34.4117647059%);}#container .edgeLabel rect{opacity:0.5;background-color:hsl(0, 0%, 34.4117647059%);fill:hsl(0, 0%, 34.4117647059%);}#container .labelBkg{background-color:rgba(87.75, 87.75, 87.75, 0.5);}#container .cluster rect{fill:hsl(180, 1.5873015873%, 28.3529411765%);stroke:rgba(255, 255, 255, 0.25);stroke-width:1px;}#container .cluster text{fill:#F9FFFE;}#container .cluster span{color:#F9FFFE;}#container div.mermaidTooltip{position:absolute;text-align:center;max-width:200px;padding:2px;font-family:"trebuchet ms",verdana,arial,sans-serif;font-size:12px;background:hsl(20, 1.5873015873%, 12.3529411765%);border:1px solid rgba(255, 255, 255, 0.25);border-radius:2px;pointer-events:none;z-index:100;}#container .flowchartTitleText{text-anchor:middle;font-size:18px;fill:#ccc;}#container rect.text{fill:none;stroke-width:0;}#container .icon-shape,#container .image-shape{background-color:hsl(0, 0%, 34.4117647059%);text-align:center;}#container .icon-shape p,#container .image-shape p{background-color:hsl(0, 0%, 34.4117647059%);padding:2px;}#container .icon-shape .label rect,#container .image-shape .label rect{opacity:0.5;background-color:hsl(0, 0%, 34.4117647059%);fill:hsl(0, 0%, 34.4117647059%);}#container .label-icon{display:inline-block;height:1em;overflow:visible;vertical-align:-0.125em;}#container .node .label-icon path{fill:currentColor;stroke:revert;stroke-width:revert;}#container .node .neo-node{stroke:#ccc;}#container [data-look="neo"].node rect,#container [data-look="neo"].cluster rect,#container [data-look="neo"].node polygon{stroke:url(#container-gradient);filter:drop-shadow( 1px 2px 2px rgba(185,185,185,1));}#container [data-look="neo"].node path{stroke:url(#container-gradient);stroke-width:1px;}#container [data-look="neo"].node .outer-path{filter:drop-shadow( 1px 2px 2px rgba(185,185,185,1));}#container [data-look="neo"].node .neo-line path{stroke:#ccc;filter:none;}#container [data-look="neo"].node circle{stroke:url(#container-gradient);filter:drop-shadow( 1px 2px 2px rgba(185,185,185,1));}#container [data-look="neo"].node circle .state-start{fill:#000000;}#container [data-look="neo"].icon-shape .icon{fill:url(#container-gradient);filter:drop-shadow( 1px 2px 2px rgba(185,185,185,1));}#container [data-look="neo"].icon-shape .icon-neo path{stroke:url(#container-gradient);filter:drop-shadow( 1px 2px 2px rgba(185,185,185,1));}#container :root{--mermaid-font-family:"trebuchet ms",verdana,arial,sans-serif;}#container .get&gt;*{fill:rgb(0, 51, 102)!important;stroke:rgb(3, 169, 244)!important;stroke-width:2px!important;}#container .get span{fill:rgb(0, 51, 102)!important;stroke:rgb(3, 169, 244)!important;stroke-width:2px!important;}#container .post&gt;*{fill:rgb(0, 77, 0)!important;stroke:rgb(76, 175, 80)!important;stroke-width:2px!important;}#container .post span{fill:rgb(0, 77, 0)!important;stroke:rgb(76, 175, 80)!important;stroke-width:2px!important;}#container .ws&gt;*{fill:rgb(102, 51, 0)!important;stroke:rgb(255, 152, 0)!important;stroke-width:2px!important;}#container .ws span{fill:rgb(102, 51, 0)!important;stroke:rgb(255, 152, 0)!important;stroke-width:2px!important;}</style><g><marker id="container_flowchart-v2-pointEnd" class="marker flowchart-v2" viewBox="0 0 10 10" refX="5" refY="5" markerUnits="userSpaceOnUse" markerWidth="8" markerHeight="8" orient="auto"><path d="M 0 0 L 10 5 L 0 10 z" class="arrowMarkerPath" style="stroke-width: 1; stroke-dasharray: 1, 0;"></path></marker><marker id="container_flowchart-v2-pointStart" class="marker flowchart-v2" viewBox="0 0 10 10" refX="4.5" refY="5" markerUnits="userSpaceOnUse" markerWidth="8" markerHeight="8" orient="auto"><path d="M 0 5 L 10 10 L 10 0 z" class="arrowMarkerPath" style="stroke-width: 1; stroke-dasharray: 1, 0;"></path></marker><marker id="container_flowchart-v2-pointEnd-margin" class="marker flowchart-v2" viewBox="0 0 11.5 14" refX="11.5" refY="7" markerUnits="userSpaceOnUse" markerWidth="10.5" markerHeight="14" orient="auto"><path d="M 0 0 L 11.5 7 L 0 14 z" class="arrowMarkerPath" style="stroke-width: 0; stroke-dasharray: 1, 0;"></path></marker><marker id="container_flowchart-v2-pointStart-margin" class="marker flowchart-v2" viewBox="0 0 11.5 14" refX="1" refY="7" markerUnits="userSpaceOnUse" markerWidth="11.5" markerHeight="14" orient="auto"><polygon points="0,7 11.5,14 11.5,0" class="arrowMarkerPath" style="stroke-width: 0; stroke-dasharray: 1, 0;"></polygon></marker><marker id="container_flowchart-v2-circleEnd" class="marker flowchart-v2" viewBox="0 0 10 10" refX="11" refY="5" markerUnits="userSpaceOnUse" markerWidth="11" markerHeight="11" orient="auto"><circle cx="5" cy="5" r="5" class="arrowMarkerPath" style="stroke-width: 1; stroke-dasharray: 1, 0;"></circle></marker><marker id="container_flowchart-v2-circleStart" class="marker flowchart-v2" viewBox="0 0 10 10" refX="-1" refY="5" markerUnits="userSpaceOnUse" markerWidth="11" markerHeight="11" orient="auto"><circle cx="5" cy="5" r="5" class="arrowMarkerPath" style="stroke-width: 1; stroke-dasharray: 1, 0;"></circle></marker><marker id="container_flowchart-v2-circleEnd-margin" class="marker flowchart-v2" viewBox="0 0 10 10" refY="5" refX="12.25" markerUnits="userSpaceOnUse" markerWidth="14" markerHeight="14" orient="auto"><circle cx="5" cy="5" r="5" class="arrowMarkerPath" style="stroke-width: 0; stroke-dasharray: 1, 0;"></circle></marker><marker id="container_flowchart-v2-circleStart-margin" class="marker flowchart-v2" viewBox="0 0 10 10" refX="-2" refY="5" markerUnits="userSpaceOnUse" markerWidth="14" markerHeight="14" orient="auto"><circle cx="5" cy="5" r="5" class="arrowMarkerPath" style="stroke-width: 0; stroke-dasharray: 1, 0;"></circle></marker><marker id="container_flowchart-v2-crossEnd" class="marker cross flowchart-v2" viewBox="0 0 11 11" refX="12" refY="5.2" markerUnits="userSpaceOnUse" markerWidth="11" markerHeight="11" orient="auto"><path d="M 1,1 l 9,9 M 10,1 l -9,9" class="arrowMarkerPath" style="stroke-width: 2; stroke-dasharray: 1, 0;"></path></marker><marker id="container_flowchart-v2-crossStart" class="marker cross flowchart-v2" viewBox="0 0 11 11" refX="-1" refY="5.2" markerUnits="userSpaceOnUse" markerWidth="11" markerHeight="11" orient="auto"><path d="M 1,1 l 9,9 M 10,1 l -9,9" class="arrowMarkerPath" style="stroke-width: 2; stroke-dasharray: 1, 0;"></path></marker><marker id="container_flowchart-v2-crossEnd-margin" class="marker cross flowchart-v2" viewBox="0 0 15 15" refX="17.7" refY="7.5" markerUnits="userSpaceOnUse" markerWidth="12" markerHeight="12" orient="auto"><path d="M 1,1 L 14,14 M 1,14 L 14,1" class="arrowMarkerPath" style="stroke-width: 2.5;"></path></marker><marker id="container_flowchart-v2-crossStart-margin" class="marker cross flowchart-v2" viewBox="0 0 15 15" refX="-3.5" refY="7.5" markerUnits="userSpaceOnUse" markerWidth="12" markerHeight="12" orient="auto"><path d="M 1,1 L 14,14 M 1,14 L 14,1" class="arrowMarkerPath" style="stroke-width: 2.5; stroke-dasharray: 1, 0;"></path></marker><g class="root"><g class="clusters"></g><g class="edgePaths"><path d="M1383.506,37.996L1290.616,47.663C1197.725,57.33,1011.945,76.665,919.054,95.833C826.164,115,826.164,134,826.164,143.5L826.164,153" id="container-L_Client_REST_API_0" class="edge-thickness-normal edge-pattern-solid edge-thickness-normal edge-pattern-solid flowchart-link" style=";" data-edge="true" data-et="edge" data-id="L_Client_REST_API_0" data-points="W3sieCI6MTM4My41MDYxMTExNDUwMTk1LCJ5IjozNy45OTU3MDIyMDgxMTYwOX0seyJ4Ijo4MjYuMTY0MDYyNSwieSI6OTZ9LHsieCI6ODI2LjE2NDA2MjUsInkiOjE1N31d" data-look="classic" marker-end="url(#container_flowchart-v2-pointEnd)"></path><path d="M1589.183,38.41L1681.411,48.008C1773.638,57.607,1958.092,76.803,2050.32,93.902C2142.547,111,2142.547,126,2142.547,133.5L2142.547,141" id="container-L_Client_WebSocket_0" class="edge-thickness-normal edge-pattern-solid edge-thickness-normal edge-pattern-solid flowchart-link" style=";" data-edge="true" data-et="edge" data-id="L_Client_WebSocket_0" data-points="W3sieCI6MTU4NS4yMDQ4MjYzNTQ5ODA1LCJ5IjozNy45OTU3MDIyMDgxMTYwOX0seyJ4IjoyMTQyLjU0Njg3NSwieSI6OTZ9LHsieCI6MjE0Mi41NDY4NzUsInkiOjE0NX1d" data-look="classic" marker-start="url(#container_flowchart-v2-pointStart)" marker-end="url(#container_flowchart-v2-pointEnd)"></path></g><g class="edgeLabels"><g class="edgeLabel" transform="translate(826.1640625, 96)"><g class="label" data-id="L_Client_REST_API_0" transform="translate(-100, -24)"><foreignObject width="200" height="48"><div xmlns="http://www.w3.org/1999/xhtml" class="labelBkg" style="display: table; white-space: break-spaces; line-height: 1.5; max-width: 200px; text-align: center; width: 200px;"><span class="edgeLabel"><p>HTTP POST/GET/PUT/DELETE</p></span></div></foreignObject></g></g><g class="edgeLabel" transform="translate(2142.546875, 96)"><g class="label" data-id="L_Client_WebSocket_0" transform="translate(-59.0390625, -12)"><foreignObject width="118.078125" height="24"><div xmlns="http://www.w3.org/1999/xhtml" class="labelBkg" style="display: table-cell; white-space: nowrap; line-height: 1.5; max-width: 200px; text-align: center;"><span class="edgeLabel"><p>Socket.io events</p></span></div></foreignObject></g></g></g><g class="nodes"><g class="root" transform="translate(1686.328125, 137)"><g class="clusters"><g class="cluster" id="container-WebSocket" data-look="classic"><rect style="" x="8" y="8" width="896.4375" height="656"></rect><g class="cluster-label" transform="translate(368.7109375, 8)"><foreignObject width="175.015625" height="24"><div xmlns="http://www.w3.org/1999/xhtml" style="display: table-cell; white-space: nowrap; line-height: 1.5;"><span class="nodeLabel"><p>WebSocket Server (WSS)</p></span></div></foreignObject></g></g></g><g class="edgePaths"></g><g class="edgeLabels"></g><g class="nodes"><g class="root" transform="translate(156.4140625, 35)"><g class="clusters"><g class="cluster" id="container-Real_Time_Data" data-look="classic"><rect style="" x="8" y="8" width="583.609375" height="178"></rect><g class="cluster-label" transform="translate(245.1015625, 8)"><foreignObject width="109.40625" height="24"><div xmlns="http://www.w3.org/1999/xhtml" style="display: table-cell; white-space: nowrap; line-height: 1.5;"><span class="nodeLabel"><p>Real-Time Data</p></span></div></foreignObject></g></g></g><g class="edgePaths"></g><g class="edgeLabels"></g><g class="nodes"><g class="node default ws" id="container-flowchart-WS6-21" data-look="classic" transform="translate(144.8046875, 97)"><rect class="basic label-container" style="fill:#663300 !important;stroke:#ff9800 !important;stroke-width:2px !important" x="-101.8046875" y="-27" width="203.609375" height="54"></rect><g class="label" style="" transform="translate(-71.8046875, -12)"><rect></rect><foreignObject width="143.609375" height="24"><div xmlns="http://www.w3.org/1999/xhtml" style="display: table-cell; white-space: nowrap; line-height: 1.5; max-width: 200px; text-align: center;"><span class="nodeLabel"><p>emit 'call:transcript'</p></span></div></foreignObject></g></g><g class="node default ws" id="container-flowchart-WS7-22" data-look="classic" transform="translate(426.609375, 97)"><rect class="basic label-container" style="fill:#663300 !important;stroke:#ff9800 !important;stroke-width:2px !important" x="-130" y="-39" width="260" height="78"></rect><g class="label" style="" transform="translate(-100, -24)"><rect></rect><foreignObject width="200" height="48"><div xmlns="http://www.w3.org/1999/xhtml" style="display: table; white-space: break-spaces; line-height: 1.5; max-width: 200px; text-align: center; width: 200px;"><span class="nodeLabel"><p>emit 'conversation:message'</p></span></div></foreignObject></g></g></g></g><g class="root" transform="translate(37.5, 263)"><g class="clusters"><g class="cluster" id="container-WebRTC_Signaling" data-look="classic"><rect style="" x="8" y="8" width="821.4375" height="154"></rect><g class="cluster-label" transform="translate(354.7578125, 8)"><foreignObject width="127.921875" height="24"><div xmlns="http://www.w3.org/1999/xhtml" style="display: table-cell; white-space: nowrap; line-height: 1.5;"><span class="nodeLabel"><p>WebRTC Signaling</p></span></div></foreignObject></g></g></g><g class="edgePaths"></g><g class="edgeLabels"></g><g class="nodes"><g class="node default ws" id="container-flowchart-WS3-18" data-look="classic" transform="translate(138.8984375, 85)"><rect class="basic label-container" style="fill:#663300 !important;stroke:#ff9800 !important;stroke-width:2px !important" x="-95.8984375" y="-27" width="191.796875" height="54"></rect><g class="label" style="" transform="translate(-65.8984375, -12)"><rect></rect><foreignObject width="131.796875" height="24"><div xmlns="http://www.w3.org/1999/xhtml" style="display: table-cell; white-space: nowrap; line-height: 1.5; max-width: 200px; text-align: center;"><span class="nodeLabel"><p>emit 'webrtc:offer'</p></span></div></foreignObject></g></g><g class="node default ws" id="container-flowchart-WS4-19" data-look="classic" transform="translate(389.203125, 85)"><rect class="basic label-container" style="fill:#663300 !important;stroke:#ff9800 !important;stroke-width:2px !important" x="-104.40625" y="-27" width="208.8125" height="54"></rect><g class="label" style="" transform="translate(-74.40625, -12)"><rect></rect><foreignObject width="148.8125" height="24"><div xmlns="http://www.w3.org/1999/xhtml" style="display: table-cell; white-space: nowrap; line-height: 1.5; max-width: 200px; text-align: center;"><span class="nodeLabel"><p>emit 'webrtc:answer'</p></span></div></foreignObject></g></g><g class="node default ws" id="container-flowchart-WS5-20" data-look="classic" transform="translate(669.0234375, 85)"><rect class="basic label-container" style="fill:#663300 !important;stroke:#ff9800 !important;stroke-width:2px !important" x="-125.4140625" y="-27" width="250.828125" height="54"></rect><g class="label" style="" transform="translate(-95.4140625, -12)"><rect></rect><foreignObject width="190.828125" height="24"><div xmlns="http://www.w3.org/1999/xhtml" style="display: table-cell; white-space: nowrap; line-height: 1.5; max-width: 200px; text-align: center;"><span class="nodeLabel"><p>emit 'webrtc:iceCandidate'</p></span></div></foreignObject></g></g></g></g><g class="root" transform="translate(196, 467)"><g class="clusters"><g class="cluster" id="container-Room_Management" data-look="classic"><rect style="" x="8" y="8" width="504.4375" height="154"></rect><g class="cluster-label" transform="translate(190.453125, 8)"><foreignObject width="139.53125" height="24"><div xmlns="http://www.w3.org/1999/xhtml" style="display: table-cell; white-space: nowrap; line-height: 1.5;"><span class="nodeLabel"><p>Room Management</p></span></div></foreignObject></g></g></g><g class="edgePaths"></g><g class="edgeLabels"></g><g class="nodes"><g class="node default ws" id="container-flowchart-WS1-16" data-look="classic" transform="translate(122.0859375, 85)"><rect class="basic label-container" style="fill:#663300 !important;stroke:#ff9800 !important;stroke-width:2px !important" x="-79.0859375" y="-27" width="158.171875" height="54"></rect><g class="label" style="" transform="translate(-49.0859375, -12)"><rect></rect><foreignObject width="98.171875" height="24"><div xmlns="http://www.w3.org/1999/xhtml" style="display: table-cell; white-space: nowrap; line-height: 1.5; max-width: 200px; text-align: center;"><span class="nodeLabel"><p>emit 'joinCall'</p></span></div></foreignObject></g></g><g class="node default ws" id="container-flowchart-WS2-17" data-look="classic" transform="translate(364.3046875, 85)"><rect class="basic label-container" style="fill:#663300 !important;stroke:#ff9800 !important;stroke-width:2px !important" x="-113.1328125" y="-27" width="226.265625" height="54"></rect><g class="label" style="" transform="translate(-83.1328125, -12)"><rect></rect><foreignObject width="166.265625" height="24"><div xmlns="http://www.w3.org/1999/xhtml" style="display: table-cell; white-space: nowrap; line-height: 1.5; max-width: 200px; text-align: center;"><span class="nodeLabel"><p>emit 'joinConversation'</p></span></div></foreignObject></g></g></g></g></g></g><g class="root" transform="translate(0, 149)"><g class="clusters"><g class="cluster" id="container-REST_API" data-look="classic"><rect style="" x="8" y="8" width="1636.328125" height="632"></rect><g class="cluster-label" transform="translate(743.1015625, 8)"><foreignObject width="166.125" height="24"><div xmlns="http://www.w3.org/1999/xhtml" style="display: table-cell; white-space: nowrap; line-height: 1.5;"><span class="nodeLabel"><p>REST API (HTTP/HTTPS)</p></span></div></foreignObject></g></g></g><g class="edgePaths"></g><g class="edgeLabels"></g><g class="nodes"><g class="root" transform="translate(517.0703125, 35)"><g class="clusters"><g class="cluster" id="container-Conversations" data-look="classic"><rect style="" x="8" y="8" width="602.1875" height="154"></rect><g class="cluster-label" transform="translate(239.7578125, 8)"><foreignObject width="138.671875" height="24"><div xmlns="http://www.w3.org/1999/xhtml" style="display: table-cell; white-space: nowrap; line-height: 1.5;"><span class="nodeLabel"><p>/api/conversations</p></span></div></foreignObject></g></g></g><g class="edgePaths"></g><g class="edgeLabels"></g><g class="nodes"><g class="node default post" id="container-flowchart-Msg1-13" data-look="classic" transform="translate(97.7890625, 85)"><rect class="basic label-container" style="fill:#004d00 !important;stroke:#4caf50 !important;stroke-width:2px !important" x="-54.7890625" y="-27" width="109.578125" height="54"></rect><g class="label" style="" transform="translate(-24.7890625, -12)"><rect></rect><foreignObject width="49.578125" height="24"><div xmlns="http://www.w3.org/1999/xhtml" style="display: table-cell; white-space: nowrap; line-height: 1.5; max-width: 200px; text-align: center;"><span class="nodeLabel"><p>POST /</p></span></div></foreignObject></g></g><g class="node default post" id="container-flowchart-Msg2-14" data-look="classic" transform="translate(305.171875, 85)"><rect class="basic label-container" style="fill:#004d00 !important;stroke:#4caf50 !important;stroke-width:2px !important" x="-102.59375" y="-27" width="205.1875" height="54"></rect><g class="label" style="" transform="translate(-72.59375, -12)"><rect></rect><foreignObject width="145.1875" height="24"><div xmlns="http://www.w3.org/1999/xhtml" style="display: table-cell; white-space: nowrap; line-height: 1.5; max-width: 200px; text-align: center;"><span class="nodeLabel"><p>POST /:id/messages</p></span></div></foreignObject></g></g><g class="node default get" id="container-flowchart-Msg3-15" data-look="classic" transform="translate(516.4765625, 85)"><rect class="basic label-container" style="fill:#003366 !important;stroke:#03a9f4 !important;stroke-width:2px !important" x="-58.7109375" y="-27" width="117.421875" height="54"></rect><g class="label" style="" transform="translate(-28.7109375, -12)"><rect></rect><foreignObject width="57.421875" height="24"><div xmlns="http://www.w3.org/1999/xhtml" style="display: table-cell; white-space: nowrap; line-height: 1.5; max-width: 200px; text-align: center;"><span class="nodeLabel"><p>GET /:id</p></span></div></foreignObject></g></g></g></g><g class="root" transform="translate(294.1875, 239)"><g class="clusters"><g class="cluster" id="container-Calls" data-look="classic"><rect style="" x="8" y="8" width="1047.953125" height="154"></rect><g class="cluster-label" transform="translate(496.65625, 8)"><foreignObject width="70.640625" height="24"><div xmlns="http://www.w3.org/1999/xhtml" style="display: table-cell; white-space: nowrap; line-height: 1.5;"><span class="nodeLabel"><p>/api/calls</p></span></div></foreignObject></g></g></g><g class="edgePaths"></g><g class="edgeLabels"></g><g class="nodes"><g class="node default post" id="container-flowchart-C1-8" data-look="classic" transform="translate(97.7890625, 85)"><rect class="basic label-container" style="fill:#004d00 !important;stroke:#4caf50 !important;stroke-width:2px !important" x="-54.7890625" y="-27" width="109.578125" height="54"></rect><g class="label" style="" transform="translate(-24.7890625, -12)"><rect></rect><foreignObject width="49.578125" height="24"><div xmlns="http://www.w3.org/1999/xhtml" style="display: table-cell; white-space: nowrap; line-height: 1.5; max-width: 200px; text-align: center;"><span class="nodeLabel"><p>POST /</p></span></div></foreignObject></g></g><g class="node default post" id="container-flowchart-C2-9" data-look="classic" transform="translate(293.765625, 85)"><rect class="basic label-container" style="fill:#004d00 !important;stroke:#4caf50 !important;stroke-width:2px !important" x="-91.1875" y="-27" width="182.375" height="54"></rect><g class="label" style="" transform="translate(-61.1875, -12)"><rect></rect><foreignObject width="122.375" height="24"><div xmlns="http://www.w3.org/1999/xhtml" style="display: table-cell; white-space: nowrap; line-height: 1.5; max-width: 200px; text-align: center;"><span class="nodeLabel"><p>POST /:id/accept</p></span></div></foreignObject></g></g><g class="node default post" id="container-flowchart-C3-10" data-look="classic" transform="translate(516.296875, 85)"><rect class="basic label-container" style="fill:#004d00 !important;stroke:#4caf50 !important;stroke-width:2px !important" x="-81.34375" y="-27" width="162.6875" height="54"></rect><g class="label" style="" transform="translate(-51.34375, -12)"><rect></rect><foreignObject width="102.6875" height="24"><div xmlns="http://www.w3.org/1999/xhtml" style="display: table-cell; white-space: nowrap; line-height: 1.5; max-width: 200px; text-align: center;"><span class="nodeLabel"><p>POST /:id/end</p></span></div></foreignObject></g></g><g class="node default post" id="container-flowchart-C4-11" data-look="classic" transform="translate(750.5859375, 85)"><rect class="basic label-container" style="fill:#004d00 !important;stroke:#4caf50 !important;stroke-width:2px !important" x="-102.9453125" y="-27" width="205.890625" height="54"></rect><g class="label" style="" transform="translate(-72.9453125, -12)"><rect></rect><foreignObject width="145.890625" height="24"><div xmlns="http://www.w3.org/1999/xhtml" style="display: table-cell; white-space: nowrap; line-height: 1.5; max-width: 200px; text-align: center;"><span class="nodeLabel"><p>POST /:id/transcript</p></span></div></foreignObject></g></g><g class="node default get" id="container-flowchart-C5-12" data-look="classic" transform="translate(962.2421875, 85)"><rect class="basic label-container" style="fill:#003366 !important;stroke:#03a9f4 !important;stroke-width:2px !important" x="-58.7109375" y="-27" width="117.421875" height="54"></rect><g class="label" style="" transform="translate(-28.7109375, -12)"><rect></rect><foreignObject width="57.421875" height="24"><div xmlns="http://www.w3.org/1999/xhtml" style="display: table-cell; white-space: nowrap; line-height: 1.5; max-width: 200px; text-align: center;"><span class="nodeLabel"><p>GET /:id</p></span></div></foreignObject></g></g></g></g><g class="root" transform="translate(37.5, 443)"><g class="clusters"><g class="cluster" id="container-Users" data-look="classic"><rect style="" x="8" y="8" width="1561.328125" height="154"></rect><g class="cluster-label" transform="translate(750.1640625, 8)"><foreignObject width="77" height="24"><div xmlns="http://www.w3.org/1999/xhtml" style="display: table-cell; white-space: nowrap; line-height: 1.5;"><span class="nodeLabel"><p>/api/users</p></span></div></foreignObject></g></g></g><g class="edgePaths"></g><g class="edgeLabels"></g><g class="nodes"><g class="node default post" id="container-flowchart-U1-1" data-look="classic" transform="translate(125.125, 85)"><rect class="basic label-container" style="fill:#004d00 !important;stroke:#4caf50 !important;stroke-width:2px !important" x="-82.125" y="-27" width="164.25" height="54"></rect><g class="label" style="" transform="translate(-52.125, -12)"><rect></rect><foreignObject width="104.25" height="24"><div xmlns="http://www.w3.org/1999/xhtml" style="display: table-cell; white-space: nowrap; line-height: 1.5; max-width: 200px; text-align: center;"><span class="nodeLabel"><p>POST /register</p></span></div></foreignObject></g></g><g class="node default post" id="container-flowchart-U2-2" data-look="classic" transform="translate(330.1171875, 85)"><rect class="basic label-container" style="fill:#004d00 !important;stroke:#4caf50 !important;stroke-width:2px !important" x="-72.8671875" y="-27" width="145.734375" height="54"></rect><g class="label" style="" transform="translate(-42.8671875, -12)"><rect></rect><foreignObject width="85.734375" height="24"><div xmlns="http://www.w3.org/1999/xhtml" style="display: table-cell; white-space: nowrap; line-height: 1.5; max-width: 200px; text-align: center;"><span class="nodeLabel"><p>POST /login</p></span></div></foreignObject></g></g><g class="node default post" id="container-flowchart-U3-3" data-look="classic" transform="translate(565.171875, 85)"><rect class="basic label-container" style="fill:#004d00 !important;stroke:#4caf50 !important;stroke-width:2px !important" x="-112.1875" y="-27" width="224.375" height="54"></rect><g class="label" style="" transform="translate(-82.1875, -12)"><rect></rect><foreignObject width="164.375" height="24"><div xmlns="http://www.w3.org/1999/xhtml" style="display: table-cell; white-space: nowrap; line-height: 1.5; max-width: 200px; text-align: center;"><span class="nodeLabel"><p>POST /login-username</p></span></div></foreignObject></g></g><g class="node default get" id="container-flowchart-U4-4" data-look="classic" transform="translate(788.0859375, 85)"><rect class="basic label-container" style="fill:#003366 !important;stroke:#03a9f4 !important;stroke-width:2px !important" x="-60.7265625" y="-27" width="121.453125" height="54"></rect><g class="label" style="" transform="translate(-30.7265625, -12)"><rect></rect><foreignObject width="61.453125" height="24"><div xmlns="http://www.w3.org/1999/xhtml" style="display: table-cell; white-space: nowrap; line-height: 1.5; max-width: 200px; text-align: center;"><span class="nodeLabel"><p>GET /me</p></span></div></foreignObject></g></g><g class="node default get" id="container-flowchart-U5-5" data-look="classic" transform="translate(993.953125, 85)"><rect class="basic label-container" style="fill:#003366 !important;stroke:#03a9f4 !important;stroke-width:2px !important" x="-95.140625" y="-27" width="190.28125" height="54"></rect><g class="label" style="" transform="translate(-65.140625, -12)"><rect></rect><foreignObject width="130.28125" height="24"><div xmlns="http://www.w3.org/1999/xhtml" style="display: table-cell; white-space: nowrap; line-height: 1.5; max-width: 200px; text-align: center;"><span class="nodeLabel"><p>GET /me/contacts</p></span></div></foreignObject></g></g><g class="node default post" id="container-flowchart-U6-6" data-look="classic" transform="translate(1252.390625, 85)"><rect class="basic label-container" style="fill:#004d00 !important;stroke:#4caf50 !important;stroke-width:2px !important" x="-113.296875" y="-27" width="226.59375" height="54"></rect><g class="label" style="" transform="translate(-83.296875, -12)"><rect></rect><foreignObject width="166.59375" height="24"><div xmlns="http://www.w3.org/1999/xhtml" style="display: table-cell; white-space: nowrap; line-height: 1.5; max-width: 200px; text-align: center;"><span class="nodeLabel"><p>POST /me/contacts/:id</p></span></div></foreignObject></g></g><g class="node default" id="container-flowchart-U7-7" data-look="classic" transform="translate(1475.0078125, 85)"><rect class="basic label-container" style="" x="-59.3203125" y="-27" width="118.640625" height="54"></rect><g class="label" style="" transform="translate(-29.3203125, -12)"><rect></rect><foreignObject width="58.640625" height="24"><div xmlns="http://www.w3.org/1999/xhtml" style="display: table-cell; white-space: nowrap; line-height: 1.5; max-width: 200px; text-align: center;"><span class="nodeLabel"><p>PUT /:id</p></span></div></foreignObject></g></g></g></g></g></g><g class="node default" id="container-flowchart-Client-0" data-look="classic" transform="translate(1484.35546875, 27.5)"><g class="basic label-container outer-path"><path d="M-81.359375 -19.5 C-44.73350535018965 -19.5, -8.107635700379305 -19.5, 81.359375 -19.5 C81.359375 -19.5, 81.359375 -19.5, 81.359375 -19.5 C81.7166643897752 -19.488542424691516, 82.07395377955041 -19.477084849383036, 82.6087442896239 -19.45993515863156 C83.01855472944811 -19.42040123837088, 83.42836516927233 -19.3808673181102, 83.85297965284786 -19.3399052695533 C84.31715699132552 -19.264860677217253, 84.78133432980319 -19.18981608488121, 85.08696825967675 -19.140403561325776 C85.49229883728852 -19.047889502015103, 85.89762941490027 -18.955375442704426, 86.30563938623538 -18.862249829261074 C86.77824257939297 -18.72198368227669, 87.25084577255055 -18.581717535292302, 87.5039852514606 -18.50658706670804 C87.86693968367663 -18.37301648053855, 88.22989411589266 -18.23944589436906, 88.6770815951478 -18.074876768247425 C89.08938106360881 -17.892364023988915, 89.50168053206984 -17.709851279730405, 89.82010791279238 -17.568892924097174 C90.14480990310648 -17.39949610373186, 90.46951189342057 -17.230099283366545, 90.92836726407678 -16.990714730406097 C91.223827584528 -16.811604947831, 91.51928790497921 -16.6324951652559, 91.9973055736057 -16.342718045390892 C92.27035566611893 -16.15225012100166, 92.54340575863216 -15.96178219661243, 93.02253034457871 -15.627565626425154 C93.22620145867891 -15.465143332846209, 93.42987257277912 -15.302721039267263, 93.99982870850187 -14.848196188198123 C94.34364540533475 -14.535950961025799, 94.68746210216764 -14.223705733853476, 94.92518473676799 -14.007812326905688 C95.1484284826318 -13.777294830648904, 95.3716722284956 -13.54677733439212, 95.79479594296865 -13.10986736009568 C95.96360545131847 -12.911574106054838, 96.1324149596683 -12.713280852013995, 96.60508890812658 -12.158051136245305 C96.83543872039643 -11.849403373103307, 97.06578853266629 -11.54075560996131, 97.35273396464063 -11.156274872382312 C97.56090098912637 -10.836474422099325, 97.7690680136121 -10.516673971816337, 98.03465887860425 -10.108655082055241 C98.15873184518514 -9.888350966140628, 98.28280481176604 -9.668046850226016, 98.6480614742735 -9.019496659696287 C98.79243057312077 -8.719711136936073, 98.93679967196803 -8.419925614175858, 99.19042114880834 -7.893275190886684 C99.35420712818068 -7.488720655250542, 99.517993107553 -7.0841661196144, 99.65950922997033 -6.734618561215508 C99.76598347467383 -6.413935100535635, 99.87245771937734 -6.093251639855762, 100.05339813421489 -5.548287939305138 C100.11952253458053 -5.296126942214532, 100.18564693494618 -5.043965945123927, 100.37046928754556 -4.339158212148133 C100.4634591318286 -3.861675015165285, 100.55644897611164 -3.3841918181824373, 100.60941977658177 -3.1121979531509023 C100.66587451861898 -2.6743461221601823, 100.72232926065617 -2.2364942911694623, 100.76926770250937 -1.872449005199798 C100.78927955657355 -1.5607482248723845, 100.80929141063773 -1.249047444544971, 100.84935621591342 -0.6250057626472757 C100.84935621591342 -0.26615548255756977, 100.84935621591342 0.09269479753213616, 100.84935621591342 0.625005762647271 C100.83101582777147 0.9106721120529704, 100.81267543962952 1.1963384614586696, 100.76926770250937 1.8724490051997846 C100.72875809857533 2.18663349378605, 100.6882484946413 2.5008179823723147, 100.60941977658177 3.1121979531508885 C100.51772346320334 3.5830391423265024, 100.42602714982489 4.053880331502116, 100.37046928754556 4.339158212148129 C100.27836192593107 4.690403501567262, 100.18625456431656 5.041648790986396, 100.05339813421489 5.548287939305125 C99.94698840602993 5.86877708651043, 99.84057867784497 6.189266233715734, 99.65950922997033 6.734618561215495 C99.53094425528727 7.052176534317333, 99.40237928060421 7.369734507419171, 99.19042114880834 7.893275190886679 C99.07094008523987 8.14138017587183, 98.9514590216714 8.389485160856982, 98.6480614742735 9.019496659696284 C98.40397925637384 9.452889353581797, 98.15989703847418 9.886282047467313, 98.03465887860425 10.108655082055236 C97.87574494402523 10.352789559935026, 97.71683100944621 10.596924037814818, 97.35273396464065 11.156274872382301 C97.08571163081285 11.514060473476503, 96.81868929698506 11.871846074570707, 96.60508890812659 12.158051136245302 C96.3474343085377 12.460706889884456, 96.08977970894881 12.76336264352361, 95.79479594296866 13.10986736009567 C95.58157252404904 13.33003804609844, 95.36834910512941 13.550208732101213, 94.92518473676799 14.007812326905684 C94.72662660142784 14.188137571861233, 94.52806846608769 14.368462816816782, 93.9998287085019 14.848196188198111 C93.77081100048167 15.030831715927082, 93.54179329246143 15.213467243656051, 93.02253034457871 15.627565626425152 C92.75820810393348 15.811945379173887, 92.49388586328824 15.996325131922623, 91.9973055736057 16.34271804539089 C91.68464709639858 16.532253451659003, 91.37198861919147 16.721788857927116, 90.92836726407678 16.990714730406093 C90.5411278644917 17.192737277130956, 90.15388846490661 17.39475982385582, 89.82010791279238 17.56889292409717 C89.41723294135227 17.747233723092293, 89.01435796991217 17.925574522087416, 88.6770815951478 18.07487676824742 C88.31467624146347 18.20824528844162, 87.95227088777915 18.34161380863582, 87.50398525146062 18.506587066708033 C87.21421342930083 18.592589822481727, 86.92444160714102 18.678592578255422, 86.30563938623541 18.86224982926107 C85.9171237097833 18.95092599710954, 85.5286080333312 19.03960216495801, 85.08696825967677 19.140403561325773 C84.73484161224167 19.197332666900145, 84.38271496480657 19.254261772474518, 83.85297965284788 19.3399052695533 C83.57278931852328 19.366934894127414, 83.29259898419866 19.39396451870153, 82.6087442896239 19.45993515863156 C82.19360276097353 19.47324793943141, 81.77846123232317 19.48656072023126, 81.359375 19.5 C81.359375 19.5, 81.359375 19.5, 81.359375 19.5 C32.856204986584295 19.5, -15.64696502683141 19.5, -81.359375 19.5 C-81.65320640396718 19.490577398782904, -81.94703780793435 19.48115479756581, -82.6087442896239 19.45993515863156 C-83.01886626638164 19.420371184777583, -83.42898824313936 19.380807210923603, -83.85297965284786 19.3399052695533 C-84.32560642322201 19.26349463859455, -84.79823319359618 19.1870840076358, -85.08696825967675 19.140403561325773 C-85.51197235039638 19.0433991510299, -85.936976441116 18.94639474073403, -86.30563938623538 18.862249829261074 C-86.61244295895523 18.771192139322643, -86.91924653167507 18.68013444938421, -87.50398525146059 18.506587066708043 C-87.91870662014932 18.353965769388285, -88.33342798883804 18.201344472068527, -88.6770815951478 18.074876768247425 C-88.95284291791569 17.952805410827075, -89.2286042406836 17.830734053406726, -89.82010791279238 17.568892924097174 C-90.23388476291935 17.35302580642266, -90.6476616130463 17.13715868874815, -90.92836726407678 16.990714730406097 C-91.23570553834725 16.804404462423168, -91.5430438126177 16.618094194440243, -91.99730557360569 16.3427180453909 C-92.2628981650792 16.157452150896955, -92.52849075655273 15.972186256403011, -93.02253034457871 15.627565626425156 C-93.26767663963199 15.432067979737054, -93.51282293468526 15.236570333048954, -93.99982870850187 14.848196188198125 C-94.28472056806463 14.589464939168764, -94.5696124276274 14.330733690139404, -94.92518473676797 14.007812326905697 C-95.15047940846607 13.775177081340875, -95.37577408016415 13.542541835776053, -95.79479594296865 13.109867360095677 C-95.9680499277695 12.90635337111759, -96.14130391257035 12.7028393821395, -96.60508890812658 12.158051136245307 C-96.84001471546533 11.843271956592716, -97.07494052280407 11.528492776940126, -97.35273396464063 11.156274872382316 C-97.59162046325456 10.789281060504603, -97.83050696186848 10.42228724862689, -98.03465887860425 10.108655082055249 C-98.22008059561027 9.779420047526214, -98.40550231261629 9.450185012997178, -98.6480614742735 9.019496659696289 C-98.82285311733831 8.656538072930168, -98.99764476040313 8.293579486164047, -99.19042114880834 7.893275190886686 C-99.36875701167364 7.452782161720055, -99.54709287453893 7.012289132553425, -99.65950922997033 6.73461856121551 C-99.78176301682976 6.366409633690611, -99.90401680368919 5.998200706165712, -100.05339813421489 5.5482879393051325 C-100.14754283043828 5.189273410035852, -100.24168752666169 4.830258880766572, -100.37046928754556 4.339158212148136 C-100.43755631895016 3.9946804847346145, -100.50464335035477 3.650202757321093, -100.60941977658177 3.112197953150904 C-100.65378705495878 2.768094103368871, -100.69815433333581 2.423990253586837, -100.76926770250937 1.872449005199809 C-100.79832342052076 1.419882743818885, -100.82737913853215 0.9673164824379612, -100.84935621591342 0.6250057626472781 C-100.84935621591342 0.24504909679220344, -100.84935621591342 -0.13490756906287127, -100.84935621591342 -0.6250057626472687 C-100.82425845418943 -1.015923660046878, -100.79916069246546 -1.406841557446487, -100.76926770250937 -1.8724490051997822 C-100.71810529963771 -2.269254498713148, -100.66694289676606 -2.666059992226514, -100.60941977658177 -3.112197953150895 C-100.54059470145135 -3.4656001677608193, -100.47176962632093 -3.8190023823707433, -100.37046928754556 -4.339158212148126 C-100.24629491540543 -4.812688910631748, -100.12212054326531 -5.28621960911537, -100.05339813421489 -5.548287939305123 C-99.96542754073988 -5.813241350641192, -99.87745694726489 -6.078194761977262, -99.65950922997033 -6.734618561215485 C-99.49233674084975 -7.147537841403499, -99.32516425172919 -7.560457121591513, -99.19042114880834 -7.893275190886676 C-98.97937504255174 -8.331516946191787, -98.76832893629515 -8.7697587014969, -98.6480614742735 -9.019496659696282 C-98.50172403061498 -9.279333609185, -98.35538658695646 -9.53917055867372, -98.03465887860425 -10.108655082055243 C-97.83395306734478 -10.416993105206412, -97.6332472560853 -10.72533112835758, -97.35273396464063 -11.156274872382308 C-97.07526722529757 -11.52805502536206, -96.7978004859545 -11.89983517834181, -96.60508890812659 -12.158051136245302 C-96.29482644255565 -12.52250308273935, -95.9845639769847 -12.886955029233398, -95.79479594296866 -13.10986736009567 C-95.52633806345587 -13.387072161494443, -95.25788018394306 -13.664276962893217, -94.92518473676799 -14.007812326905677 C-94.71208702599588 -14.201342029572439, -94.4989893152238 -14.3948717322392, -93.9998287085019 -14.848196188198107 C-93.66580392328241 -15.114572065637804, -93.33177913806293 -15.3809479430775, -93.02253034457871 -15.627565626425149 C-92.74986223356353 -15.817767097057052, -92.47719412254837 -16.007968567688955, -91.99730557360571 -16.342718045390885 C-91.5816974402262 -16.594662138230042, -91.16608930684667 -16.8466062310692, -90.92836726407678 -16.99071473040609 C-90.51891705254008 -17.20432464349942, -90.10946684100335 -17.417934556592748, -89.8201079127924 -17.56889292409717 C-89.54792967530942 -17.689378155950337, -89.27575143782644 -17.8098633878035, -88.67708159514781 -18.07487676824742 C-88.3674301829023 -18.188831350340045, -88.05777877065678 -18.30278593243267, -87.50398525146062 -18.506587066708033 C-87.21704530878914 -18.591749335514432, -86.93010536611767 -18.676911604320832, -86.30563938623541 -18.862249829261067 C-85.86908824765482 -18.96188977787968, -85.4325371090742 -19.061529726498293, -85.08696825967677 -19.140403561325773 C-84.63842966600966 -19.212919802681125, -84.18989107234256 -19.28543604403648, -83.85297965284788 -19.3399052695533 C-83.46134890626604 -19.377685416671167, -83.0697181596842 -19.41546556378903, -82.6087442896239 -19.45993515863156 C-82.35619915853157 -19.46803378943641, -82.10365402743923 -19.476132420241267, -81.359375 -19.5 C-81.359375 -19.5, -81.359375 -19.5, -81.359375 -19.5" stroke="none" stroke-width="0" fill="#1f2020" style=""></path><path d="M-81.359375 -19.5 C-32.04187161215073 -19.5, 17.275631775698542 -19.5, 81.359375 -19.5 M-81.359375 -19.5 C-43.591204896973906 -19.5, -5.823034793947812 -19.5, 81.359375 -19.5 M81.359375 -19.5 C81.359375 -19.5, 81.359375 -19.5, 81.359375 -19.5 M81.359375 -19.5 C81.359375 -19.5, 81.359375 -19.5, 81.359375 -19.5 M81.359375 -19.5 C81.68216658238843 -19.489648702228504, 82.00495816477688 -19.479297404457007, 82.6087442896239 -19.45993515863156 M81.359375 -19.5 C81.85069240476098 -19.48424440712063, 82.34200980952195 -19.468488814241258, 82.6087442896239 -19.45993515863156 M82.6087442896239 -19.45993515863156 C82.87936773159349 -19.43382844065706, 83.1499911735631 -19.40772172268256, 83.85297965284786 -19.3399052695533 M82.6087442896239 -19.45993515863156 C83.02248121259451 -19.420022455264032, 83.43621813556514 -19.380109751896505, 83.85297965284786 -19.3399052695533 M83.85297965284786 -19.3399052695533 C84.2816558568078 -19.270600225330668, 84.71033206076775 -19.201295181108037, 85.08696825967675 -19.140403561325776 M83.85297965284786 -19.3399052695533 C84.23608660658132 -19.27796750831247, 84.6191935603148 -19.216029747071644, 85.08696825967675 -19.140403561325776 M85.08696825967675 -19.140403561325776 C85.53910571940389 -19.037206136615715, 85.99124317913105 -18.934008711905655, 86.30563938623538 -18.862249829261074 M85.08696825967675 -19.140403561325776 C85.51079043543983 -19.04366891540602, 85.9346126112029 -18.946934269486263, 86.30563938623538 -18.862249829261074 M86.30563938623538 -18.862249829261074 C86.60846045600228 -18.772374125294494, 86.91128152576916 -18.682498421327917, 87.5039852514606 -18.50658706670804 M86.30563938623538 -18.862249829261074 C86.764050459365 -18.726195829005032, 87.2224615324946 -18.59014182874899, 87.5039852514606 -18.50658706670804 M87.5039852514606 -18.50658706670804 C87.95599094097447 -18.340244794672145, 88.40799663048834 -18.17390252263625, 88.6770815951478 -18.074876768247425 M87.5039852514606 -18.50658706670804 C87.96647975155237 -18.336384815421976, 88.42897425164414 -18.166182564135912, 88.6770815951478 -18.074876768247425 M88.6770815951478 -18.074876768247425 C88.95714981464528 -17.950898875404445, 89.23721803414274 -17.82692098256146, 89.82010791279238 -17.568892924097174 M88.6770815951478 -18.074876768247425 C89.01429425476081 -17.925602726894883, 89.35150691437381 -17.77632868554234, 89.82010791279238 -17.568892924097174 M89.82010791279238 -17.568892924097174 C90.1527606000401 -17.395348230234255, 90.48541328728783 -17.221803536371336, 90.92836726407678 -16.990714730406097 M89.82010791279238 -17.568892924097174 C90.10120473577503 -17.422244891598233, 90.38230155875769 -17.27559685909929, 90.92836726407678 -16.990714730406097 M90.92836726407678 -16.990714730406097 C91.26920815125985 -16.78409498159234, 91.61004903844291 -16.577475232778582, 91.9973055736057 -16.342718045390892 M90.92836726407678 -16.990714730406097 C91.21334979684724 -16.81795664429739, 91.4983323296177 -16.645198558188678, 91.9973055736057 -16.342718045390892 M91.9973055736057 -16.342718045390892 C92.35037016247702 -16.096435472113978, 92.70343475134834 -15.850152898837061, 93.02253034457871 -15.627565626425154 M91.9973055736057 -16.342718045390892 C92.36409198190714 -16.086863724887515, 92.73087839020859 -15.831009404384137, 93.02253034457871 -15.627565626425154 M93.02253034457871 -15.627565626425154 C93.40650427300355 -15.32135663648171, 93.79047820142839 -15.015147646538265, 93.99982870850187 -14.848196188198123 M93.02253034457871 -15.627565626425154 C93.39117479880447 -15.33358148422103, 93.75981925303023 -15.039597342016908, 93.99982870850187 -14.848196188198123 M93.99982870850187 -14.848196188198123 C94.3575900058044 -14.523286843833185, 94.71535130310693 -14.198377499468247, 94.92518473676799 -14.007812326905688 M93.99982870850187 -14.848196188198123 C94.2033042527786 -14.66340508255389, 94.40677979705532 -14.478613976909656, 94.92518473676799 -14.007812326905688 M94.92518473676799 -14.007812326905688 C95.18662483391637 -13.737853961968817, 95.44806493106475 -13.467895597031946, 95.79479594296865 -13.10986736009568 M94.92518473676799 -14.007812326905688 C95.15841567995703 -13.766982229446448, 95.39164662314607 -13.526152131987208, 95.79479594296865 -13.10986736009568 M95.79479594296865 -13.10986736009568 C96.0752460797059 -12.780434671419252, 96.35569621644315 -12.451001982742824, 96.60508890812658 -12.158051136245305 M95.79479594296865 -13.10986736009568 C96.06323533981346 -12.794543169927376, 96.33167473665826 -12.479218979759072, 96.60508890812658 -12.158051136245305 M96.60508890812658 -12.158051136245305 C96.86024097116997 -11.816170616598288, 97.11539303421337 -11.47429009695127, 97.35273396464063 -11.156274872382312 M96.60508890812658 -12.158051136245305 C96.8525704042284 -11.82644847749696, 97.10005190033024 -11.494845818748615, 97.35273396464063 -11.156274872382312 M97.35273396464063 -11.156274872382312 C97.62473050842247 -10.738415139834647, 97.89672705220433 -10.320555407286982, 98.03465887860425 -10.108655082055241 M97.35273396464063 -11.156274872382312 C97.5572178987875 -10.842132637908051, 97.76170183293438 -10.52799040343379, 98.03465887860425 -10.108655082055241 M98.03465887860425 -10.108655082055241 C98.25624648117115 -9.715203855519832, 98.47783408373806 -9.321752628984422, 98.6480614742735 -9.019496659696287 M98.03465887860425 -10.108655082055241 C98.25299018652473 -9.720985736400142, 98.47132149444522 -9.333316390745042, 98.6480614742735 -9.019496659696287 M98.6480614742735 -9.019496659696287 C98.76052915965549 -8.785955104577631, 98.87299684503748 -8.552413549458974, 99.19042114880834 -7.893275190886684 M98.6480614742735 -9.019496659696287 C98.84528029277334 -8.609967563274651, 99.04249911127319 -8.200438466853017, 99.19042114880834 -7.893275190886684 M99.19042114880834 -7.893275190886684 C99.30705462774475 -7.605188242958856, 99.42368810668114 -7.317101295031028, 99.65950922997033 -6.734618561215508 M99.19042114880834 -7.893275190886684 C99.36100812466827 -7.471922062437834, 99.53159510052821 -7.050568933988982, 99.65950922997033 -6.734618561215508 M99.65950922997033 -6.734618561215508 C99.78197086126937 -6.365783639354021, 99.9044324925684 -5.9969487174925336, 100.05339813421489 -5.548287939305138 M99.65950922997033 -6.734618561215508 C99.77213209141063 -6.395416446573469, 99.88475495285091 -6.05621433193143, 100.05339813421489 -5.548287939305138 M100.05339813421489 -5.548287939305138 C100.14389643110168 -5.203178711065789, 100.23439472798849 -4.85806948282644, 100.37046928754556 -4.339158212148133 M100.05339813421489 -5.548287939305138 C100.13240336422659 -5.247006756187243, 100.21140859423828 -4.94572557306935, 100.37046928754556 -4.339158212148133 M100.37046928754556 -4.339158212148133 C100.4533370547896 -3.913649741458776, 100.53620482203365 -3.4881412707694186, 100.60941977658177 -3.1121979531509023 M100.37046928754556 -4.339158212148133 C100.46000324930088 -3.879420241544058, 100.5495372110562 -3.4196822709399832, 100.60941977658177 -3.1121979531509023 M100.60941977658177 -3.1121979531509023 C100.6654717821648 -2.677469666569434, 100.72152378774783 -2.242741379987966, 100.76926770250937 -1.872449005199798 M100.60941977658177 -3.1121979531509023 C100.66472906565721 -2.6832300291362703, 100.72003835473267 -2.2542621051216383, 100.76926770250937 -1.872449005199798 M100.76926770250937 -1.872449005199798 C100.79029615941967 -1.5449138149569057, 100.81132461632997 -1.2173786247140135, 100.84935621591342 -0.6250057626472757 M100.76926770250937 -1.872449005199798 C100.79820572755959 -1.4217159066892147, 100.82714375260981 -0.9709828081786315, 100.84935621591342 -0.6250057626472757 M100.84935621591342 -0.6250057626472757 C100.84935621591342 -0.2608856588506828, 100.84935621591342 0.10323444494591005, 100.84935621591342 0.625005762647271 M100.84935621591342 -0.6250057626472757 C100.84935621591342 -0.3568241466403318, 100.84935621591342 -0.0886425306333879, 100.84935621591342 0.625005762647271 M100.84935621591342 0.625005762647271 C100.82339348011195 1.0293963294984083, 100.79743074431046 1.4337868963495457, 100.76926770250937 1.8724490051997846 M100.84935621591342 0.625005762647271 C100.82357423555351 1.0265809175928262, 100.7977922551936 1.428156072538381, 100.76926770250937 1.8724490051997846 M100.76926770250937 1.8724490051997846 C100.71607792044294 2.2849784513964235, 100.66288813837653 2.697507897593062, 100.60941977658177 3.1121979531508885 M100.76926770250937 1.8724490051997846 C100.7155433811223 2.2891242328106607, 100.66181905973522 2.7057994604215367, 100.60941977658177 3.1121979531508885 M100.60941977658177 3.1121979531508885 C100.5209505947835 3.5664685037168686, 100.43248141298521 4.020739054282848, 100.37046928754556 4.339158212148129 M100.60941977658177 3.1121979531508885 C100.5604950224603 3.3634162253142224, 100.51157026833883 3.614634497477556, 100.37046928754556 4.339158212148129 M100.37046928754556 4.339158212148129 C100.2901700497427 4.645374007800246, 100.20987081193984 4.951589803452364, 100.05339813421489 5.548287939305125 M100.37046928754556 4.339158212148129 C100.25492065897414 4.77979521198337, 100.13937203040271 5.220432211818612, 100.05339813421489 5.548287939305125 M100.05339813421489 5.548287939305125 C99.93628661161911 5.9010091861764264, 99.81917508902335 6.253730433047727, 99.65950922997033 6.734618561215495 M100.05339813421489 5.548287939305125 C99.94661670400733 5.8698965937798295, 99.83983527379978 6.1915052482545345, 99.65950922997033 6.734618561215495 M99.65950922997033 6.734618561215495 C99.560724301568 6.978619244245912, 99.46193937316566 7.222619927276329, 99.19042114880834 7.893275190886679 M99.65950922997033 6.734618561215495 C99.47853599974144 7.181625938760221, 99.29756276951255 7.628633316304947, 99.19042114880834 7.893275190886679 M99.19042114880834 7.893275190886679 C99.06910761348124 8.145185342687244, 98.94779407815413 8.39709549448781, 98.6480614742735 9.019496659696284 M99.19042114880834 7.893275190886679 C99.00013892118673 8.288400307930395, 98.80985669356512 8.68352542497411, 98.6480614742735 9.019496659696284 M98.6480614742735 9.019496659696284 C98.49362166082409 9.293720187202632, 98.33918184737468 9.56794371470898, 98.03465887860425 10.108655082055236 M98.6480614742735 9.019496659696284 C98.43136024123571 9.404271642334193, 98.21465900819791 9.789046624972102, 98.03465887860425 10.108655082055236 M98.03465887860425 10.108655082055236 C97.85941808931852 10.377871993138877, 97.6841773000328 10.647088904222517, 97.35273396464065 11.156274872382301 M98.03465887860425 10.108655082055236 C97.7686424289801 10.517327784096562, 97.50262597935595 10.926000486137886, 97.35273396464065 11.156274872382301 M97.35273396464065 11.156274872382301 C97.14041195199272 11.440767026397252, 96.92808993934479 11.725259180412202, 96.60508890812659 12.158051136245302 M97.35273396464065 11.156274872382301 C97.15059165654469 11.427127149687774, 96.94844934844873 11.697979426993244, 96.60508890812659 12.158051136245302 M96.60508890812659 12.158051136245302 C96.30286191352378 12.513064161308927, 96.00063491892097 12.868077186372554, 95.79479594296866 13.10986736009567 M96.60508890812659 12.158051136245302 C96.4299016389525 12.363836071055196, 96.25471436977841 12.569621005865093, 95.79479594296866 13.10986736009567 M95.79479594296866 13.10986736009567 C95.55535558065807 13.357109192600696, 95.31591521834748 13.60435102510572, 94.92518473676799 14.007812326905684 M95.79479594296866 13.10986736009567 C95.48298097689212 13.431841913054512, 95.17116601081558 13.753816466013355, 94.92518473676799 14.007812326905684 M94.92518473676799 14.007812326905684 C94.5911674394365 14.311157998728747, 94.257150142105 14.61450367055181, 93.9998287085019 14.848196188198111 M94.92518473676799 14.007812326905684 C94.55710396013122 14.342093549363534, 94.18902318349443 14.676374771821386, 93.9998287085019 14.848196188198111 M93.9998287085019 14.848196188198111 C93.70806469150699 15.080870227584978, 93.41630067451209 15.313544266971842, 93.02253034457871 15.627565626425152 M93.9998287085019 14.848196188198111 C93.66281308939284 15.116957176075308, 93.32579747028379 15.385718163952507, 93.02253034457871 15.627565626425152 M93.02253034457871 15.627565626425152 C92.68771839161923 15.861115951033844, 92.35290643865974 16.094666275642535, 91.9973055736057 16.34271804539089 M93.02253034457871 15.627565626425152 C92.62396329551468 15.90558874616274, 92.22539624645067 16.18361186590033, 91.9973055736057 16.34271804539089 M91.9973055736057 16.34271804539089 C91.67695861993936 16.536914251271085, 91.35661166627303 16.731110457151285, 90.92836726407678 16.990714730406093 M91.9973055736057 16.34271804539089 C91.62771921416714 16.566763468413072, 91.25813285472859 16.790808891435255, 90.92836726407678 16.990714730406093 M90.92836726407678 16.990714730406093 C90.51945266778529 17.204045213369067, 90.11053807149379 17.41737569633204, 89.82010791279238 17.56889292409717 M90.92836726407678 16.990714730406093 C90.59360173076871 17.165361694705357, 90.25883619746064 17.340008659004617, 89.82010791279238 17.56889292409717 M89.82010791279238 17.56889292409717 C89.46719219669907 17.72511824273892, 89.11427648060577 17.881343561380667, 88.6770815951478 18.07487676824742 M89.82010791279238 17.56889292409717 C89.38557419317628 17.761248111786404, 88.9510404735602 17.95360329947564, 88.6770815951478 18.07487676824742 M88.6770815951478 18.07487676824742 C88.22646521546585 18.24070776142253, 87.77584883578389 18.40653875459764, 87.50398525146062 18.506587066708033 M88.6770815951478 18.07487676824742 C88.40896640636488 18.173545636149168, 88.14085121758198 18.272214504050915, 87.50398525146062 18.506587066708033 M87.50398525146062 18.506587066708033 C87.14222960287668 18.613954244313597, 86.78047395429276 18.72132142191916, 86.30563938623541 18.86224982926107 M87.50398525146062 18.506587066708033 C87.1521316842102 18.611015358550894, 86.80027811695979 18.715443650393755, 86.30563938623541 18.86224982926107 M86.30563938623541 18.86224982926107 C85.8625519722255 18.96338164009324, 85.41946455821558 19.064513450925407, 85.08696825967677 19.140403561325773 M86.30563938623541 18.86224982926107 C85.87267430588084 18.961071283490806, 85.43970922552627 19.059892737720546, 85.08696825967677 19.140403561325773 M85.08696825967677 19.140403561325773 C84.75986513285966 19.19328705814693, 84.43276200604257 19.24617055496808, 83.85297965284788 19.3399052695533 M85.08696825967677 19.140403561325773 C84.63053088541 19.214196816272523, 84.17409351114323 19.28799007121927, 83.85297965284788 19.3399052695533 M83.85297965284788 19.3399052695533 C83.50215427062707 19.373748972246887, 83.15132888840625 19.407592674940478, 82.6087442896239 19.45993515863156 M83.85297965284788 19.3399052695533 C83.37518036646158 19.38599799207327, 82.89738108007526 19.432090714593244, 82.6087442896239 19.45993515863156 M82.6087442896239 19.45993515863156 C82.25361562217881 19.471323443780506, 81.89848695473371 19.482711728929452, 81.359375 19.5 M82.6087442896239 19.45993515863156 C82.23700886038405 19.47185599030816, 81.86527343114422 19.483776821984765, 81.359375 19.5 M81.359375 19.5 C81.359375 19.5, 81.359375 19.5, 81.359375 19.5 M81.359375 19.5 C81.359375 19.5, 81.359375 19.5, 81.359375 19.5 M81.359375 19.5 C25.24888040724175 19.5, -30.8616141855165 19.5, -81.359375 19.5 M81.359375 19.5 C18.89311026350459 19.5, -43.57315447299082 19.5, -81.359375 19.5 M-81.359375 19.5 C-81.7931007005077 19.48609126098058, -82.22682640101539 19.472182521961162, -82.6087442896239 19.45993515863156 M-81.359375 19.5 C-81.78154300917593 19.48646189364591, -82.20371101835188 19.472923787291816, -82.6087442896239 19.45993515863156 M-82.6087442896239 19.45993515863156 C-82.89624208654686 19.43220059192909, -83.18373988346981 19.40446602522662, -83.85297965284786 19.3399052695533 M-82.6087442896239 19.45993515863156 C-82.93560095634457 19.42840368909567, -83.26245762306523 19.396872219559782, -83.85297965284786 19.3399052695533 M-83.85297965284786 19.3399052695533 C-84.25061829768107 19.27561813719041, -84.64825694251428 19.211331004827525, -85.08696825967675 19.140403561325773 M-83.85297965284786 19.3399052695533 C-84.25896548079622 19.274268629357724, -84.66495130874459 19.208631989162154, -85.08696825967675 19.140403561325773 M-85.08696825967675 19.140403561325773 C-85.41431739654175 19.06568825698909, -85.74166653340674 18.990972952652406, -86.30563938623538 18.862249829261074 M-85.08696825967675 19.140403561325773 C-85.42973732987939 19.06216875782924, -85.77250640008202 18.98393395433271, -86.30563938623538 18.862249829261074 M-86.30563938623538 18.862249829261074 C-86.73890687454049 18.733658312999577, -87.1721743628456 18.60506679673808, -87.50398525146059 18.506587066708043 M-86.30563938623538 18.862249829261074 C-86.72495181657914 18.73780010095091, -87.14426424692289 18.61335037264075, -87.50398525146059 18.506587066708043 M-87.50398525146059 18.506587066708043 C-87.9201162748027 18.353447003445137, -88.33624729814481 18.200306940182227, -88.6770815951478 18.074876768247425 M-87.50398525146059 18.506587066708043 C-87.75241014105133 18.415164410924145, -88.00083503064207 18.32374175514025, -88.6770815951478 18.074876768247425 M-88.6770815951478 18.074876768247425 C-89.05715982614352 17.90662741000575, -89.43723805713925 17.73837805176408, -89.82010791279238 17.568892924097174 M-88.6770815951478 18.074876768247425 C-89.02191231667783 17.922230436866, -89.36674303820784 17.769584105484572, -89.82010791279238 17.568892924097174 M-89.82010791279238 17.568892924097174 C-90.21268522090517 17.364085593912503, -90.60526252901795 17.15927826372783, -90.92836726407678 16.990714730406097 M-89.82010791279238 17.568892924097174 C-90.05889100562574 17.444319937513878, -90.29767409845911 17.319746950930583, -90.92836726407678 16.990714730406097 M-90.92836726407678 16.990714730406097 C-91.31120348754267 16.758637161945703, -91.69403971100856 16.526559593485313, -91.99730557360569 16.3427180453909 M-90.92836726407678 16.990714730406097 C-91.33607315904754 16.743561020929032, -91.74377905401832 16.496407311451968, -91.99730557360569 16.3427180453909 M-91.99730557360569 16.3427180453909 C-92.35022026935218 16.0965400310691, -92.70313496509867 15.850362016747297, -93.02253034457871 15.627565626425156 M-91.99730557360569 16.3427180453909 C-92.21433637801887 16.191326751344366, -92.43136718243206 16.03993545729783, -93.02253034457871 15.627565626425156 M-93.02253034457871 15.627565626425156 C-93.3423995998094 15.37247840745705, -93.66226885504008 15.117391188488947, -93.99982870850187 14.848196188198125 M-93.02253034457871 15.627565626425156 C-93.2282215694459 15.46353234826694, -93.4339127943131 15.299499070108723, -93.99982870850187 14.848196188198125 M-93.99982870850187 14.848196188198125 C-94.20626360479392 14.660717477353732, -94.41269850108597 14.473238766509336, -94.92518473676797 14.007812326905697 M-93.99982870850187 14.848196188198125 C-94.3299707193321 14.54836994904105, -94.66011273016233 14.248543709883972, -94.92518473676797 14.007812326905697 M-94.92518473676797 14.007812326905697 C-95.24120723487397 13.68149315168163, -95.55722973297996 13.355173976457566, -95.79479594296865 13.109867360095677 M-94.92518473676797 14.007812326905697 C-95.15673711177396 13.768715488908471, -95.38828948677995 13.529618650911248, -95.79479594296865 13.109867360095677 M-95.79479594296865 13.109867360095677 C-96.06914408602248 12.787602420413068, -96.34349222907632 12.465337480730458, -96.60508890812658 12.158051136245307 M-95.79479594296865 13.109867360095677 C-96.10699684848767 12.743138411738265, -96.41919775400667 12.376409463380853, -96.60508890812658 12.158051136245307 M-96.60508890812658 12.158051136245307 C-96.80675584079903 11.887835818699736, -97.00842277347148 11.617620501154168, -97.35273396464063 11.156274872382316 M-96.60508890812658 12.158051136245307 C-96.81365499994104 11.878591573975777, -97.0222210917555 11.599132011706248, -97.35273396464063 11.156274872382316 M-97.35273396464063 11.156274872382316 C-97.61003220185113 10.760995685776198, -97.86733043906163 10.36571649917008, -98.03465887860425 10.108655082055249 M-97.35273396464063 11.156274872382316 C-97.49002886783305 10.94535303223515, -97.62732377102544 10.734431192087984, -98.03465887860425 10.108655082055249 M-98.03465887860425 10.108655082055249 C-98.21094790286423 9.79563606828222, -98.38723692712422 9.482617054509193, -98.6480614742735 9.019496659696289 M-98.03465887860425 10.108655082055249 C-98.17415024854706 9.860974029688892, -98.3136416184899 9.613292977322537, -98.6480614742735 9.019496659696289 M-98.6480614742735 9.019496659696289 C-98.76851906154182 8.769363902354149, -98.88897664881014 8.51923114501201, -99.19042114880834 7.893275190886686 M-98.6480614742735 9.019496659696289 C-98.8153303202941 8.67215932195458, -98.98259916631467 8.324821984212871, -99.19042114880834 7.893275190886686 M-99.19042114880834 7.893275190886686 C-99.34461755824876 7.512407078384094, -99.49881396768917 7.131538965881503, -99.65950922997033 6.73461856121551 M-99.19042114880834 7.893275190886686 C-99.32261961830606 7.566742415343772, -99.45481808780379 7.240209639800859, -99.65950922997033 6.73461856121551 M-99.65950922997033 6.73461856121551 C-99.76822411204063 6.407186657783932, -99.87693899411093 6.0797547543523525, -100.05339813421489 5.5482879393051325 M-99.65950922997033 6.73461856121551 C-99.8157092060512 6.264169120346376, -99.97190918213208 5.793719679477243, -100.05339813421489 5.5482879393051325 M-100.05339813421489 5.5482879393051325 C-100.1458406048205 5.1957647340656905, -100.23828307542614 4.843241528826249, -100.37046928754556 4.339158212148136 M-100.05339813421489 5.5482879393051325 C-100.13980399566182 5.218784941070703, -100.22620985710877 4.889281942836273, -100.37046928754556 4.339158212148136 M-100.37046928754556 4.339158212148136 C-100.45837709080403 3.887770221736678, -100.54628489406251 3.4363822313252204, -100.60941977658177 3.112197953150904 M-100.37046928754556 4.339158212148136 C-100.4530727065239 3.9150071139331817, -100.53567612550222 3.4908560157182276, -100.60941977658177 3.112197953150904 M-100.60941977658177 3.112197953150904 C-100.64363534709794 2.8468287448561584, -100.67785091761411 2.581459536561413, -100.76926770250937 1.872449005199809 M-100.60941977658177 3.112197953150904 C-100.64310816922351 2.8509174323472286, -100.67679656186523 2.589636911543553, -100.76926770250937 1.872449005199809 M-100.76926770250937 1.872449005199809 C-100.79869214904633 1.4141394994008596, -100.8281165955833 0.95582999360191, -100.84935621591342 0.6250057626472781 M-100.76926770250937 1.872449005199809 C-100.79115150779316 1.5315910736151366, -100.81303531307694 1.190733142030464, -100.84935621591342 0.6250057626472781 M-100.84935621591342 0.6250057626472781 C-100.84935621591342 0.348797980060607, -100.84935621591342 0.07259019747393591, -100.84935621591342 -0.6250057626472687 M-100.84935621591342 0.6250057626472781 C-100.84935621591342 0.15408194453946267, -100.84935621591342 -0.3168418735683528, -100.84935621591342 -0.6250057626472687 M-100.84935621591342 -0.6250057626472687 C-100.82359831126499 -1.0262059189530164, -100.79784040661656 -1.4274060752587643, -100.76926770250937 -1.8724490051997822 M-100.84935621591342 -0.6250057626472687 C-100.82695570596786 -0.9739117864155089, -100.8045551960223 -1.322817810183749, -100.76926770250937 -1.8724490051997822 M-100.76926770250937 -1.8724490051997822 C-100.71140464395329 -2.3212234610074143, -100.6535415853972 -2.769997916815046, -100.60941977658177 -3.112197953150895 M-100.76926770250937 -1.8724490051997822 C-100.72657894829601 -2.2035345530305395, -100.68389019408266 -2.5346201008612965, -100.60941977658177 -3.112197953150895 M-100.60941977658177 -3.112197953150895 C-100.55010319355641 -3.416776070421912, -100.49078661053103 -3.721354187692928, -100.37046928754556 -4.339158212148126 M-100.60941977658177 -3.112197953150895 C-100.5495814761207 -3.41945497918925, -100.48974317565963 -3.726712005227605, -100.37046928754556 -4.339158212148126 M-100.37046928754556 -4.339158212148126 C-100.29309786991962 -4.634208960540335, -100.2157264522937 -4.929259708932545, -100.05339813421489 -5.548287939305123 M-100.37046928754556 -4.339158212148126 C-100.30183724585748 -4.600881932419784, -100.23320520416941 -4.862605652691442, -100.05339813421489 -5.548287939305123 M-100.05339813421489 -5.548287939305123 C-99.9227852390654 -5.941673169156619, -99.79217234391592 -6.3350583990081155, -99.65950922997033 -6.734618561215485 M-100.05339813421489 -5.548287939305123 C-99.9567941927344 -5.839243619296491, -99.86019025125393 -6.1301992992878604, -99.65950922997033 -6.734618561215485 M-99.65950922997033 -6.734618561215485 C-99.52273009410985 -7.072465671235569, -99.38595095824937 -7.410312781255653, -99.19042114880834 -7.893275190886676 M-99.65950922997033 -6.734618561215485 C-99.53870007482335 -7.033019510114637, -99.41789091967637 -7.33142045901379, -99.19042114880834 -7.893275190886676 M-99.19042114880834 -7.893275190886676 C-99.04640212639731 -8.192333772436623, -98.90238310398627 -8.49139235398657, -98.6480614742735 -9.019496659696282 M-99.19042114880834 -7.893275190886676 C-99.00276795208316 -8.282941069021707, -98.81511475535798 -8.672606947156735, -98.6480614742735 -9.019496659696282 M-98.6480614742735 -9.019496659696282 C-98.43700077167553 -9.394256309372642, -98.22594006907757 -9.769015959049003, -98.03465887860425 -10.108655082055243 M-98.6480614742735 -9.019496659696282 C-98.46802755817649 -9.339165108137388, -98.28799364207946 -9.658833556578495, -98.03465887860425 -10.108655082055243 M-98.03465887860425 -10.108655082055243 C-97.80812879170796 -10.456666127373545, -97.58159870481165 -10.804677172691846, -97.35273396464063 -11.156274872382308 M-98.03465887860425 -10.108655082055243 C-97.83059892993818 -10.422145960974943, -97.62653898127212 -10.735636839894642, -97.35273396464063 -11.156274872382308 M-97.35273396464063 -11.156274872382308 C-97.17216939967336 -11.398214939668181, -96.9916048347061 -11.640155006954055, -96.60508890812659 -12.158051136245302 M-97.35273396464063 -11.156274872382308 C-97.19717808197576 -11.364705583720788, -97.04162219931091 -11.573136295059268, -96.60508890812659 -12.158051136245302 M-96.60508890812659 -12.158051136245302 C-96.42806918298405 -12.365988578105432, -96.25104945784152 -12.573926019965564, -95.79479594296866 -13.10986736009567 M-96.60508890812659 -12.158051136245302 C-96.38881268096159 -12.412101499139254, -96.1725364537966 -12.666151862033207, -95.79479594296866 -13.10986736009567 M-95.79479594296866 -13.10986736009567 C-95.60622375640581 -13.30458362478626, -95.41765156984295 -13.49929988947685, -94.92518473676799 -14.007812326905677 M-95.79479594296866 -13.10986736009567 C-95.58488752892568 -13.326615031396353, -95.37497911488268 -13.543362702697037, -94.92518473676799 -14.007812326905677 M-94.92518473676799 -14.007812326905677 C-94.70124259306027 -14.211190656636598, -94.47730044935255 -14.414568986367517, -93.9998287085019 -14.848196188198107 M-94.92518473676799 -14.007812326905677 C-94.59504457668022 -14.307636885267414, -94.26490441659247 -14.60746144362915, -93.9998287085019 -14.848196188198107 M-93.9998287085019 -14.848196188198107 C-93.72588938414214 -15.066655509543436, -93.45195005978238 -15.285114830888766, -93.02253034457871 -15.627565626425149 M-93.9998287085019 -14.848196188198107 C-93.77403270601151 -15.028262491500216, -93.54823670352111 -15.208328794802325, -93.02253034457871 -15.627565626425149 M-93.02253034457871 -15.627565626425149 C-92.68187899938648 -15.865189258272192, -92.34122765419426 -16.102812890119235, -91.99730557360571 -16.342718045390885 M-93.02253034457871 -15.627565626425149 C-92.7071866319239 -15.84753574936384, -92.3918429192691 -16.06750587230253, -91.99730557360571 -16.342718045390885 M-91.99730557360571 -16.342718045390885 C-91.6744802689934 -16.538416642178934, -91.35165496438108 -16.734115238966986, -90.92836726407678 -16.99071473040609 M-91.99730557360571 -16.342718045390885 C-91.6762027947778 -16.537372436925754, -91.35510001594987 -16.732026828460622, -90.92836726407678 -16.99071473040609 M-90.92836726407678 -16.99071473040609 C-90.5741113549472 -17.17552981128725, -90.21985544581764 -17.360344892168413, -89.8201079127924 -17.56889292409717 M-90.92836726407678 -16.99071473040609 C-90.68798540227026 -17.116121793738625, -90.44760354046373 -17.24152885707116, -89.8201079127924 -17.56889292409717 M-89.8201079127924 -17.56889292409717 C-89.36768192496767 -17.76916848816709, -88.91525593714294 -17.969444052237005, -88.67708159514781 -18.07487676824742 M-89.8201079127924 -17.56889292409717 C-89.4004642539551 -17.754656723577586, -88.98082059511782 -17.940420523058005, -88.67708159514781 -18.07487676824742 M-88.67708159514781 -18.07487676824742 C-88.25128334041007 -18.23157446202683, -87.82548508567233 -18.388272155806238, -87.50398525146062 -18.506587066708033 M-88.67708159514781 -18.07487676824742 C-88.42697314102078 -18.166918991343373, -88.17686468689377 -18.25896121443932, -87.50398525146062 -18.506587066708033 M-87.50398525146062 -18.506587066708033 C-87.14374544425928 -18.61350435054805, -86.78350563705796 -18.720421634388074, -86.30563938623541 -18.862249829261067 M-87.50398525146062 -18.506587066708033 C-87.09296291970253 -18.62857633727359, -86.68194058794442 -18.750565607839146, -86.30563938623541 -18.862249829261067 M-86.30563938623541 -18.862249829261067 C-85.90168845935779 -18.95444899229474, -85.49773753248016 -19.04664815532841, -85.08696825967677 -19.140403561325773 M-86.30563938623541 -18.862249829261067 C-85.99871928164649 -18.932302340292633, -85.69179917705756 -19.002354851324196, -85.08696825967677 -19.140403561325773 M-85.08696825967677 -19.140403561325773 C-84.71752771467281 -19.200131843587798, -84.34808716966886 -19.25986012584982, -83.85297965284788 -19.3399052695533 M-85.08696825967677 -19.140403561325773 C-84.7873817076147 -19.18883839173476, -84.48779515555263 -19.23727322214374, -83.85297965284788 -19.3399052695533 M-83.85297965284788 -19.3399052695533 C-83.51248379876951 -19.37275249509006, -83.17198794469114 -19.405599720626824, -82.6087442896239 -19.45993515863156 M-83.85297965284788 -19.3399052695533 C-83.41173207186411 -19.382471893012944, -82.97048449088035 -19.425038516472593, -82.6087442896239 -19.45993515863156 M-82.6087442896239 -19.45993515863156 C-82.29128482216298 -19.470115465855663, -81.97382535470206 -19.480295773079767, -81.359375 -19.5 M-82.6087442896239 -19.45993515863156 C-82.24439529862482 -19.471619121610612, -81.88004630762576 -19.48330308458966, -81.359375 -19.5 M-81.359375 -19.5 C-81.359375 -19.5, -81.359375 -19.5, -81.359375 -19.5 M-81.359375 -19.5 C-81.359375 -19.5, -81.359375 -19.5, -81.359375 -19.5" stroke="#ccc" stroke-width="1.3" fill="none" stroke-dasharray="0 0" style=""></path></g><g class="label" style="" transform="translate(-88.484375, -12)"><rect></rect><foreignObject width="176.96875" height="24"><div xmlns="http://www.w3.org/1999/xhtml" style="display: table-cell; white-space: nowrap; line-height: 1.5; max-width: 200px; text-align: center;"><span class="nodeLabel"><p>Frontend / Mobile Client</p></span></div></foreignObject></g></g></g></g></g><defs><filter id="container-drop-shadow" height="130%" width="130%"><feDropShadow dx="4" dy="4" stdDeviation="0" flood-opacity="0.06" flood-color="#FFFFFF"></feDropShadow></filter></defs><defs><filter id="container-drop-shadow-small" height="150%" width="150%"><feDropShadow dx="2" dy="2" stdDeviation="0" flood-opacity="0.06" flood-color="#FFFFFF"></feDropShadow></filter></defs><linearGradient id="container-gradient" gradientUnits="objectBoundingBox" x1="0%" y1="0%" x2="100%" y2="0%"><stop offset="0%" stop-color="#cccccc" stop-opacity="1"></stop><stop offset="100%" stop-color="hsl(180, 0%, 18.3529411765%)" stop-opacity="1"></stop></linearGradient></svg>